/* XPM */
static char *khanat_client[] = {
/* columns rows colors chars-per-pixel */
"32 32 69 1 ",
"  c #000065",
". c #00006D",
"X c #000072",
"o c #0E0673",
"O c #0F0873",
"+ c #02007A",
"@ c #0C047A",
"# c #110773",
"$ c #110973",
"% c #10077C",
"& c #120A7B",
"* c #171174",
"= c #1A1574",
"- c #1E1A75",
"; c #17117B",
": c #1A147A",
"> c #1E197D",
", c #211E75",
"< c #211D7E",
"1 c #242277",
"2 c #282577",
"3 c #252278",
"4 c #302F7A",
"5 c #36347B",
"6 c #38377C",
"7 c #3E3C7E",
"8 c #120983",
"9 c #221D84",
"0 c #444281",
"q c #484781",
"w c #4E4D85",
"e c #545387",
"r c #575689",
"t c #5C5B8B",
"y c #605F8D",
"u c #63628E",
"i c #6B6A93",
"p c #727096",
"a c #757498",
"s c #79779B",
"d c #7C7B9D",
"f c #81819F",
"g c #8383A1",
"h c #8C8CA7",
"j c #8E8DA8",
"k c #908FAA",
"l c #9696AE",
"z c #9E9EB4",
"x c #A3A2B7",
"c c #A5A5B9",
"v c #ABABBD",
"b c #B4B4C3",
"n c #BABAC7",
"m c #BBBBC9",
"M c #C2C2CE",
"N c #C6C6D1",
"B c #CBCBD5",
"V c #CFCFD8",
"C c #D1CFD9",
"Z c #D3D3DC",
"A c #DADAE0",
"S c #E2E0E7",
"D c #E3E3E8",
"F c #EAEAEE",
"G c #EEEEF2",
"H c #F4F4F6",
"J c #F7F7F9",
"K c #FEFEFE",
"L c None",
/* pixels */
"LLLLLLLLLLLLLLLLLLLLLLLLLLLLLLLL",
"LLLLLLLLLLLO&#LLLL*LLLLLLLLLLLLL",
"LLLLLLLLLLL#88OLLL91LLLLLLLLLLLL",
"LLLLLLLLLLL#&OLLLLX LLL:#LLLLLLL",
"LLLLLLLLLLLLLO#OXwsie .+>#LLLLLL",
"LLLLL###LLLL##:OXsLHZvi.X1LLLLLL",
"LLLLLO8OLLoO&o*OXgLLLJJb0LLLLLLL",
"LLLLLL&OL*&&#o*o.gJJJLLLZuLL#LLL",
"LLLLLLLL*:-=#O*OXgLJJJJJLZr.9oLL",
"LLLLLLLLX..Xo=*O.hLJJJLLLLm1.>oL",
"LLLLLLLXuhfiXX1#.gLJJLFnMJLl.=LL",
"LLL#LLL+eBLJx#.,XgLJJLN.tGLB7LLL",
"L#O&OL#;.0bLLm0..gLJJLN.eFLFgLLL",
"LL#8#OO*o..lJLZu gLLLLZ.yGLJcLLL",
"LLL##L#&#1X.sDLFsubvvvh.tGLLnXX=",
"LLLLLL##Oo-#.tDLJa .....tHLLM=X>",
"LLLLLLO###-XXzJLntpassu.tGLLM*X:",
"LLLLLL#&#-X*vLLc.sLJJLB.tGLLb.X=",
"LLLLLL#*-.2bLLz..hLLJLB.tFLJzLLL",
"LLL&#o#:.7NLJhX..hJJJLM.tFLDsLLL",
"LL#&8#L.wVLHg.X-.gLJJLB.eGLM:.LL",
"LLLL#LLXegfuX.,o.gLJJLGMMLJa.<#L",
"LLLLLLLLXX..X=*o.gLJJJJLLLxX+*LL",
"LLLLLLLLL+#**o*o.gLJJJJLLn5.>oLL",
"LLLLLLL#L-=&#O*O.gLJJLLJv7LLLLLL",
"LLLLLL#8OLLo&&*O.hLLLJSgXLLLLLLL",
"LLLLL#8##LLLLo*&+aFVng7.+-LLLLLL",
"LLLLLOLLLLLLLO#LX5w6LL.+=#LLLLLL",
"LLLLLLLLLLLLO&#LLL+.LLL=LLLLLLLL",
"LLLLLLLLLLLLO8#LLL:,LLLLLLLLLLLL",
"LLLLLLLLLLLLO#LLLLLLLLLLLLLLLLLL",
"LLLLLLLLLLLLLLLLLLLLLLLLLLLLLLLL"
};
